<svg xmlns="http://www.w3.org/2000/svg" viewBox="0 0 48 60" x="0px" y="0px"><g><path d="M48,1V12a1,1,0,0,1-2,0V3.41l-9.29,9.3a1,1,0,0,1-1.42,0,1,1,0,0,1,0-1.42L44.59,2H36a1,1,0,0,1,0-2H47a1,1,0,0,1,.38.08,1,1,0,0,1,.54.54A1,1,0,0,1,48,1ZM12.71,35.29a1,1,0,0,0-1.42,0L2,44.59V36a1,1,0,0,0-2,0V47a1,1,0,0,0,.08.38,1,1,0,0,0,.54.54A1,1,0,0,0,1,48H12a1,1,0,0,0,0-2H3.41l9.3-9.29A1,1,0,0,0,12.71,35.29Z"/></g><text x="0" y="63" fill="#000000" font-size="5px" font-weight="bold" font-family="'Helvetica Neue', Helvetica, Arial-Unicode, Arial, Sans-serif">Created by cataicon</text><text x="0" y="68" fill="#000000" font-size="5px" font-weight="bold" font-family="'Helvetica Neue', Helvetica, Arial-Unicode, Arial, Sans-serif">from the Noun Project</text></svg>